<svg xmlns="http://www.w3.org/2000/svg" xmlns:xlink="http://www.w3.org/1999/xlink" width="96" height="44" version="1.1" viewBox="0 0 96 44"><title>Group 15</title><desc>Created with Sketch.</desc><g id="Designs" fill="none" fill-rule="evenodd" stroke="none" stroke-width="1"><g id="Home-Page-Velloro-Rd2" fill="#FFF" transform="translate(-312.000000, -1272.000000)"><g id="Use-Cases" transform="translate(0.000000, 1051.000000)"><g id="Critical-Migration" transform="translate(250.000000, 133.000000)"><g id="Group-15" transform="translate(62.000000, 88.000000)"><polygon id="Fill-1" points="40.819 36.069 40.819 40.818 36.069 40.818 36.069 43.318 43.319 43.318 43.319 36.069"/><polygon id="Fill-2" points="10.453 43.319 20.059 43.319 20.059 40.819 10.453 40.819"/><polygon id="Fill-3" points="23.26 43.319 32.867 43.319 32.867 40.819 23.26 40.819"/><polygon id="Fill-4" points="0 36.069 0 43.318 7.25 43.318 7.25 40.818 2.5 40.818 2.5 36.069"/><polygon id="Fill-5" points="0 32.867 2.5 32.867 2.5 23.26 0 23.26"/><polygon id="Fill-6" points="0 20.059 2.5 20.059 2.5 10.453 0 10.453"/><polygon id="Fill-7" points="0 0 0 7.25 2.5 7.25 2.5 2.5 7.25 2.5 7.25 0"/><polygon id="Fill-8" points="10.452 2.5 20.059 2.5 20.059 0 10.452 0"/><polygon id="Fill-9" points="23.26 2.5 32.867 2.5 32.867 0 23.26 0"/><polygon id="Fill-10" points="36.069 0 36.069 2.5 40.819 2.5 40.819 7.25 43.319 7.25 43.319 0"/><polygon id="Fill-11" points="40.819 32.867 43.319 32.867 43.319 25.364 40.819 25.364"/><polygon id="Fill-12" points="40.819 17.859 43.319 17.859 43.319 10.453 40.819 10.453"/><polygon id="Fill-13" points="51.732 .014 51.732 17.978 54.232 17.978 54.232 2.514 92.522 2.514 92.522 40.804 54.232 40.804 54.232 25.409 51.732 25.409 51.732 43.304 95.021 43.304 95.021 .014"/><path id="Fill-14" d="M16.299,27.2628 L27.505,27.2628 L27.505,16.0568 L16.299,16.0568 L16.299,27.2628 Z M81.253,21.6598 L73.158,16.9848 L73.158,20.4098 L30.005,20.4098 L30.005,13.5568 L13.799,13.5568 L13.799,29.7628 L30.005,29.7628 L30.005,22.9098 L73.158,22.9098 L73.158,26.3338 L81.253,21.6598 Z"/></g></g></g></g></g></svg>